# xmcd CD database file
# Copyright (C) 1996 Ti Kan
#
# Track frame offsets:
# 	150
# 	18265
# 	33700
# 	53580
# 	70640
# 	90557
# 	106567
# 	121732
# 	134467
# 	154610
# 	167170
# 	188190
# 	205517
# 	227295
# 	244595
#
# Disc length: 3465 seconds
#
# Revision: 1
# Processed by: cddbd v1.4b41PL1 Copyright (c) Steve Scherf et al.
# Submitted via: DiscPlay 3.4.1
#
DISCID=ac0d870f
DTITLE=Hippos - Hippocalypse
DYEAR=1900
DGENRE=
TTITLE0=Time and Motion
TTITLE1=Drinking on the Job
TTITLE2=Name of the Game
TTITLE3=Eat at Home
TTITLE4=Place in Line
TTITLE5=I Can't Hear You
TTITLE6=Too Scared to go Home
TTITLE7=A Dog Wouldn't Do Me
TTITLE8=Horror Smash
TTITLE9=Ain't for Pleasin'
TTITLE10=Blues Before BedTime
TTITLE11=Walkin' Talkin'
TTITLE12=Puppy Fat
TTITLE13=Never Be the Same
TTITLE14=Ded Fred
EXTD=
EXTT0=
EXTT1=
EXTT2=
EXTT3=
EXTT4=
EXTT5=
EXTT6=
EXTT7=
EXTT8=
EXTT9=
EXTT10=
EXTT11=
EXTT12=
EXTT13=
EXTT14=
PLAYORDER=
